<svg xmlns="http://www.w3.org/2000/svg" xmlns:xlink="http://www.w3.org/1999/xlink" version="1.1" class="marks" width="447" height="364" viewBox="0 0 447 364"><rect width="447" height="364" fill="white"/><g fill="none" stroke-miterlimit="10" transform="translate(39,27)"><g class="mark-group role-frame root" role="graphics-object" aria-roledescription="group mark container"><g transform="translate(0,0)"><path class="background" aria-hidden="true" d="M0.5,0.5h300v300h-300Z" stroke="#ddd"/><g><g class="mark-group role-axis" aria-hidden="true"><g transform="translate(0.5,300.5)"><path class="background" aria-hidden="true" d="M0,0h0v0h0Z" pointer-events="none"/><g><g class="mark-rule role-axis-grid" pointer-events="none"><line transform="translate(159,-300)" x2="0" y2="300" stroke="#ddd" stroke-width="1" opacity="1"/><line transform="translate(85,-300)" x2="0" y2="300" stroke="#ddd" stroke-width="1" opacity="1"/><line transform="translate(233,-300)" x2="0" y2="300" stroke="#ddd" stroke-width="1" opacity="1"/><line transform="translate(48,-300)" x2="0" y2="300" stroke="#ddd" stroke-width="1" opacity="1"/><line transform="translate(122,-300)" x2="0" y2="300" stroke="#ddd" stroke-width="1" opacity="1"/><line transform="translate(196,-300)" x2="0" y2="300" stroke="#ddd" stroke-width="1" opacity="1"/><line transform="translate(270,-300)" x2="0" y2="300" stroke="#ddd" stroke-width="1" opacity="1"/><line transform="translate(12,-300)" x2="0" y2="300" stroke="#ddd" stroke-width="1" opacity="1"/></g></g><path class="foreground" aria-hidden="true" d="" pointer-events="none" display="none"/></g></g><g class="mark-group role-axis" aria-hidden="true"><g transform="translate(0.5,0.5)"><path class="background" aria-hidden="true" d="M0,0h0v0h0Z" pointer-events="none"/><g><g class="mark-rule role-axis-grid" pointer-events="none"><line transform="translate(0,87)" x2="300" y2="0" stroke="#ddd" stroke-width="1" opacity="1"/><line transform="translate(0,218)" x2="300" y2="0" stroke="#ddd" stroke-width="1" opacity="1"/><line transform="translate(0,152)" x2="300" y2="0" stroke="#ddd" stroke-width="1" opacity="1"/><line transform="translate(0,21)" x2="300" y2="0" stroke="#ddd" stroke-width="1" opacity="1"/><line transform="translate(0,251)" x2="300" y2="0" stroke="#ddd" stroke-width="1" opacity="1"/><line transform="translate(0,185)" x2="300" y2="0" stroke="#ddd" stroke-width="1" opacity="1"/><line transform="translate(0,119)" x2="300" y2="0" stroke="#ddd" stroke-width="1" opacity="1"/><line transform="translate(0,54)" x2="300" y2="0" stroke="#ddd" stroke-width="1" opacity="1"/><line transform="translate(0,283)" x2="300" y2="0" stroke="#ddd" stroke-width="1" opacity="1"/></g></g><path class="foreground" aria-hidden="true" d="" pointer-events="none" display="none"/></g></g><g class="mark-group role-axis" role="graphics-symbol" aria-roledescription="axis" aria-label="X-axis titled 'Obesity levels(Country)' for a linear scale with values from −2 to 39"><g transform="translate(0.5,300.5)"><path class="background" aria-hidden="true" d="M0,0h0v0h0Z" pointer-events="none"/><g><g class="mark-rule role-axis-tick" pointer-events="none"><line transform="translate(159,0)" x2="0" y2="5" stroke="#888" stroke-width="1" opacity="1"/><line transform="translate(85,0)" x2="0" y2="5" stroke="#888" stroke-width="1" opacity="1"/><line transform="translate(233,0)" x2="0" y2="5" stroke="#888" stroke-width="1" opacity="1"/><line transform="translate(48,0)" x2="0" y2="5" stroke="#888" stroke-width="1" opacity="1"/><line transform="translate(122,0)" x2="0" y2="5" stroke="#888" stroke-width="1" opacity="1"/><line transform="translate(196,0)" x2="0" y2="5" stroke="#888" stroke-width="1" opacity="1"/><line transform="translate(270,0)" x2="0" y2="5" stroke="#888" stroke-width="1" opacity="1"/><line transform="translate(12,0)" x2="0" y2="5" stroke="#888" stroke-width="1" opacity="1"/></g><g class="mark-text role-axis-label" pointer-events="none"><text text-anchor="middle" transform="translate(159.09166373800727,15)" font-family="sans-serif" font-size="10px" fill="#000" opacity="1">20</text><text text-anchor="middle" transform="translate(85.33423641970604,15)" font-family="sans-serif" font-size="10px" fill="#000" opacity="1">10</text><text text-anchor="middle" transform="translate(232.84909105630848,15)" font-family="sans-serif" font-size="10px" fill="#000" opacity="1">30</text><text text-anchor="middle" transform="translate(48.455522760555425,15)" font-family="sans-serif" font-size="10px" fill="#000" opacity="1">5</text><text text-anchor="middle" transform="translate(122.21295007885665,15)" font-family="sans-serif" font-size="10px" fill="#000" opacity="1">15</text><text text-anchor="middle" transform="translate(195.9703773971579,15)" font-family="sans-serif" font-size="10px" fill="#000" opacity="1">25</text><text text-anchor="middle" transform="translate(269.7278047154591,15)" font-family="sans-serif" font-size="10px" fill="#000" opacity="1">35</text><text text-anchor="middle" transform="translate(11.576809101404807,15)" font-family="sans-serif" font-size="10px" fill="#000" opacity="1">0</text></g><g class="mark-rule role-axis-domain" pointer-events="none"><line transform="translate(0,0)" x2="300" y2="0" stroke="#888" stroke-width="1" opacity="1"/></g><g class="mark-text role-axis-title" pointer-events="none"><text text-anchor="middle" transform="translate(150,30)" font-family="sans-serif" font-size="11px" font-weight="bold" fill="#000" opacity="1">Obesity levels(Country)</text></g></g><path class="foreground" aria-hidden="true" d="" pointer-events="none" display="none"/></g></g><g class="mark-group role-axis" role="graphics-symbol" aria-roledescription="axis" aria-label="Y-axis titled 'Life expectancy(years) (Country)' for a linear scale with values from 35 to 126"><g transform="translate(0.5,0.5)"><path class="background" aria-hidden="true" d="M0,0h0v0h0Z" pointer-events="none"/><g><g class="mark-rule role-axis-tick" pointer-events="none"><line transform="translate(0,87)" x2="-5" y2="0" stroke="#888" stroke-width="1" opacity="1"/><line transform="translate(0,218)" x2="-5" y2="0" stroke="#888" stroke-width="1" opacity="1"/><line transform="translate(0,152)" x2="-5" y2="0" stroke="#888" stroke-width="1" opacity="1"/><line transform="translate(0,21)" x2="-5" y2="0" stroke="#888" stroke-width="1" opacity="1"/><line transform="translate(0,251)" x2="-5" y2="0" stroke="#888" stroke-width="1" opacity="1"/><line transform="translate(0,185)" x2="-5" y2="0" stroke="#888" stroke-width="1" opacity="1"/><line transform="translate(0,119)" x2="-5" y2="0" stroke="#888" stroke-width="1" opacity="1"/><line transform="translate(0,54)" x2="-5" y2="0" stroke="#888" stroke-width="1" opacity="1"/><line transform="translate(0,283)" x2="-5" y2="0" stroke="#888" stroke-width="1" opacity="1"/></g><g class="mark-text role-axis-label" pointer-events="none"><text text-anchor="end" transform="translate(-7,89.66807097842724)" font-family="sans-serif" font-size="10px" fill="#000" opacity="1">100</text><text text-anchor="end" transform="translate(-7,220.79238621096334)" font-family="sans-serif" font-size="10px" fill="#000" opacity="1">60</text><text text-anchor="end" transform="translate(-7,155.23022859469526)" font-family="sans-serif" font-size="10px" fill="#000" opacity="1">80</text><text text-anchor="end" transform="translate(-7,24.105913362159146)" font-family="sans-serif" font-size="10px" fill="#000" opacity="1">120</text><text text-anchor="end" transform="translate(-7,253.57346501909737)" font-family="sans-serif" font-size="10px" fill="#000" opacity="1">50</text><text text-anchor="end" transform="translate(-7,188.01130740282932)" font-family="sans-serif" font-size="10px" fill="#000" opacity="1">70</text><text text-anchor="end" transform="translate(-7,122.44914978656125)" font-family="sans-serif" font-size="10px" fill="#000" opacity="1">90</text><text text-anchor="end" transform="translate(-7,56.88699217029319)" font-family="sans-serif" font-size="10px" fill="#000" opacity="1">110</text><text text-anchor="end" transform="translate(-7,286.3545438272314)" font-family="sans-serif" font-size="10px" fill="#000" opacity="1">40</text></g><g class="mark-rule role-axis-domain" pointer-events="none"><line transform="translate(0,300)" x2="0" y2="-300" stroke="#888" stroke-width="1" opacity="1"/></g><g class="mark-text role-axis-title" pointer-events="none"><text text-anchor="middle" transform="translate(-27.6845703125,150) rotate(-90) translate(0,-2)" font-family="sans-serif" font-size="11px" font-weight="bold" fill="#000" opacity="1">Life expectancy(years) (Country)</text></g></g><path class="foreground" aria-hidden="true" d="" pointer-events="none" display="none"/></g></g><g class="mark-symbol role-mark marks" clip-path="url(#clip1)" role="graphics-object" aria-roledescription="symbol mark container"><path aria-label="Obesity levels(Country): 20.4; Life expectancy(years) (Country): 81.2; happiness_level: High; City: Amsterdam" role="graphics-symbol" aria-roledescription="circle" transform="translate(162.04196083073927,148.2964991377192)" d="M4.472,0A4.472,4.472,0,1,1,-4.472,0A4.472,4.472,0,1,1,4.472,0" fill="#e45756" stroke-width="2" opacity="0.7"/><path aria-label="Obesity levels(Country): 29; Life expectancy(years) (Country): 82.1; happiness_level: High; City: Sydney" role="graphics-symbol" aria-roledescription="circle" transform="translate(225.47334832447837,145.34620204498717)" d="M4.472,0A4.472,4.472,0,1,1,-4.472,0A4.472,4.472,0,1,1,4.472,0" fill="#e45756" stroke-width="2" opacity="0.7"/><path aria-label="Obesity levels(Country): 20.1; Life expectancy(years) (Country): 81; happiness_level: High; City: Vienna" role="graphics-symbol" aria-roledescription="circle" transform="translate(159.82923801119026,148.9521207138819)" d="M4.472,0A4.472,4.472,0,1,1,-4.472,0A4.472,4.472,0,1,1,4.472,0" fill="#e45756" stroke-width="2" opacity="0.7"/><path aria-label="Obesity levels(Country): 20.6; Life expectancy(years) (Country): 81.8; happiness_level: High; City: Stockholm" role="graphics-symbol" aria-roledescription="circle" transform="translate(163.51710937710533,146.32963440923118)" d="M4.472,0A4.472,4.472,0,1,1,-4.472,0A4.472,4.472,0,1,1,4.472,0" fill="#e45756" stroke-width="2" opacity="0.7"/><path aria-label="Obesity levels(Country): 19.7; Life expectancy(years) (Country): 79.8; happiness_level: High; City: Copenhagen" role="graphics-symbol" aria-roledescription="circle" transform="translate(156.8789409184582,152.88585017085796)" d="M4.472,0A4.472,4.472,0,1,1,-4.472,0A4.472,4.472,0,1,1,4.472,0" fill="#e45756" stroke-width="2" opacity="0.7"/><path aria-label="Obesity levels(Country): 22.2; Life expectancy(years) (Country): 80.4; happiness_level: High; City: Helsinki" role="graphics-symbol" aria-roledescription="circle" transform="translate(175.31829774803353,150.91898544236992)" d="M4.472,0A4.472,4.472,0,1,1,-4.472,0A4.472,4.472,0,1,1,4.472,0" fill="#e45756" stroke-width="2" opacity="0.7"/><path aria-label="Obesity levels(Country): 4.3; Life expectancy(years) (Country): 83.2; happiness_level: Medium; City: Fukuoka" role="graphics-symbol" aria-roledescription="circle" transform="translate(43.292502848274324,141.74028337609238)" d="M4.472,0A4.472,4.472,0,1,1,-4.472,0A4.472,4.472,0,1,1,4.472,0" fill="#f58518" stroke-width="2" opacity="0.7"/><path aria-label="Obesity levels(Country): 22.3; Life expectancy(years) (Country): 80.6; happiness_level: High; City: Berlin" role="graphics-symbol" aria-roledescription="circle" transform="translate(176.05587202121657,150.26336386620724)" d="M4.472,0A4.472,4.472,0,1,1,-4.472,0A4.472,4.472,0,1,1,4.472,0" fill="#e45756" stroke-width="2" opacity="0.7"/><path aria-label="Obesity levels(Country): 23.8; Life expectancy(years) (Country): 82.2; happiness_level: Medium; City: Barcelona" role="graphics-symbol" aria-roledescription="circle" transform="translate(187.11948611896173,145.01839125690577)" d="M4.472,0A4.472,4.472,0,1,1,-4.472,0A4.472,4.472,0,1,1,4.472,0" fill="#f58518" stroke-width="2" opacity="0.7"/><path aria-label="Obesity levels(Country): 29.4; Life expectancy(years) (Country): 81.7; happiness_level: High; City: Vancouver" role="graphics-symbol" aria-roledescription="circle" transform="translate(228.42364541721042,146.65744519731248)" d="M4.472,0A4.472,4.472,0,1,1,-4.472,0A4.472,4.472,0,1,1,4.472,0" fill="#e45756" stroke-width="2" opacity="0.7"/><path aria-label="Obesity levels(Country): 29; Life expectancy(years) (Country): 82.1; happiness_level: High; City: Melbourne" role="graphics-symbol" aria-roledescription="circle" transform="translate(225.47334832447837,145.34620204498717)" d="M4.472,0A4.472,4.472,0,1,1,-4.472,0A4.472,4.472,0,1,1,4.472,0" fill="#e45756" stroke-width="2" opacity="0.7"/><path aria-label="Obesity levels(Country): 6.2; Life expectancy(years) (Country): 75.4; happiness_level: Low; City: Beijing" role="graphics-symbol" aria-roledescription="circle" transform="translate(57.30641403875157,167.30952484643694)" d="M4.472,0A4.472,4.472,0,1,1,-4.472,0A4.472,4.472,0,1,1,4.472,0" fill="#4c78a8" stroke-width="2" opacity="0.7"/><path aria-label="Obesity levels(Country): 10; Life expectancy(years) (Country): 74.1; happiness_level: Medium; City: Bangkok" role="graphics-symbol" aria-roledescription="circle" transform="translate(85.33423641970604,171.57106509149435)" d="M4.472,0A4.472,4.472,0,1,1,-4.472,0A4.472,4.472,0,1,1,4.472,0" fill="#f58518" stroke-width="2" opacity="0.7"/><path aria-label="Obesity levels(Country): 28.3; Life expectancy(years) (Country): 75.9; happiness_level: Medium; City: Buenos Aires" role="graphics-symbol" aria-roledescription="circle" transform="translate(220.3103284121973,165.6704709060302)" d="M4.472,0A4.472,4.472,0,1,1,-4.472,0A4.472,4.472,0,1,1,4.472,0" fill="#f58518" stroke-width="2" opacity="0.7"/><path aria-label="Obesity levels(Country): 29.4; Life expectancy(years) (Country): 81.7; happiness_level: High; City: Toronto" role="graphics-symbol" aria-roledescription="circle" transform="translate(228.42364541721042,146.65744519731248)" d="M4.472,0A4.472,4.472,0,1,1,-4.472,0A4.472,4.472,0,1,1,4.472,0" fill="#e45756" stroke-width="2" opacity="0.7"/><path aria-label="Obesity levels(Country): 23.8; Life expectancy(years) (Country): 82.2; happiness_level: Medium; City: Madrid" role="graphics-symbol" aria-roledescription="circle" transform="translate(187.11948611896173,145.01839125690577)" d="M4.472,0A4.472,4.472,0,1,1,-4.472,0A4.472,4.472,0,1,1,4.472,0" fill="#f58518" stroke-width="2" opacity="0.7"/><path aria-label="Obesity levels(Country): 6.9; Life expectancy(years) (Country): 68.5; happiness_level: Low; City: Jakarta" role="graphics-symbol" aria-roledescription="circle" transform="translate(62.46943395103266,189.9284692240494)" d="M4.472,0A4.472,4.472,0,1,1,-4.472,0A4.472,4.472,0,1,1,4.472,0" fill="#4c78a8" stroke-width="2" opacity="0.7"/><path aria-label="Obesity levels(Country): 4.7; Life expectancy(years) (Country): 81.3; happiness_level: Medium; City: Seoul" role="graphics-symbol" aria-roledescription="circle" transform="translate(46.24279994100638,147.96868834963786)" d="M4.472,0A4.472,4.472,0,1,1,-4.472,0A4.472,4.472,0,1,1,4.472,0" fill="#f58518" stroke-width="2" opacity="0.7"/><path aria-label="Obesity levels(Country): 22.3; Life expectancy(years) (Country): 80.6; happiness_level: High; City: Frankfurt" role="graphics-symbol" aria-roledescription="circle" transform="translate(176.05587202121657,150.26336386620724)" d="M4.472,0A4.472,4.472,0,1,1,-4.472,0A4.472,4.472,0,1,1,4.472,0" fill="#e45756" stroke-width="2" opacity="0.7"/><path aria-label="Obesity levels(Country): 19.5; Life expectancy(years) (Country): 82.6; happiness_level: High; City: Geneva" role="graphics-symbol" aria-roledescription="circle" transform="translate(155.4037923720922,143.70714810458043)" d="M4.472,0A4.472,4.472,0,1,1,-4.472,0A4.472,4.472,0,1,1,4.472,0" fill="#e45756" stroke-width="2" opacity="0.7"/><path aria-label="Obesity levels(Country): 26.1; Life expectancy(years) (Country): 81.9; happiness_level: High; City: Tel Aviv" role="graphics-symbol" aria-roledescription="circle" transform="translate(204.08369440217103,146.00182362114978)" d="M4.472,0A4.472,4.472,0,1,1,-4.472,0A4.472,4.472,0,1,1,4.472,0" fill="#e45756" stroke-width="2" opacity="0.7"/><path aria-label="Obesity levels(Country): 32.1; Life expectancy(years) (Country): 74.7; happiness_level: Low; City: Istanbul" role="graphics-symbol" aria-roledescription="circle" transform="translate(248.33815079315175,169.60420036300633)" d="M4.472,0A4.472,4.472,0,1,1,-4.472,0A4.472,4.472,0,1,1,4.472,0" fill="#4c78a8" stroke-width="2" opacity="0.7"/><path aria-label="Obesity levels(Country): 32; Life expectancy(years) (Country): 70.7; happiness_level: Low; City: Cairo" role="graphics-symbol" aria-roledescription="circle" transform="translate(247.60057651996874,182.7166318862599)" d="M4.472,0A4.472,4.472,0,1,1,-4.472,0A4.472,4.472,0,1,1,4.472,0" fill="#4c78a8" stroke-width="2" opacity="0.7"/><path aria-label="Obesity levels(Country): 6.2; Life expectancy(years) (Country): 75.4; happiness_level: Low; City: Taipei" role="graphics-symbol" aria-roledescription="circle" transform="translate(57.30641403875157,167.30952484643694)" d="M4.472,0A4.472,4.472,0,1,1,-4.472,0A4.472,4.472,0,1,1,4.472,0" fill="#4c78a8" stroke-width="2" opacity="0.7"/><path aria-label="Obesity levels(Country): 36.2; Life expectancy(years) (Country): 78.8; happiness_level: High; City: Los Angeles" role="graphics-symbol" aria-roledescription="circle" transform="translate(278.5786959936553,156.16395805167136)" d="M4.472,0A4.472,4.472,0,1,1,-4.472,0A4.472,4.472,0,1,1,4.472,0" fill="#e45756" stroke-width="2" opacity="0.7"/><path aria-label="Obesity levels(Country): 3.9; Life expectancy(years) (Country): 67.3; happiness_level: Low; City: Mumbai" role="graphics-symbol" aria-roledescription="circle" transform="translate(40.34220575554229,193.86219868102552)" d="M4.472,0A4.472,4.472,0,1,1,-4.472,0A4.472,4.472,0,1,1,4.472,0" fill="#4c78a8" stroke-width="2" opacity="0.7"/><path aria-label="Obesity levels(Country): 36.2; Life expectancy(years) (Country): 78.8; happiness_level: High; City: Boston" role="graphics-symbol" aria-roledescription="circle" transform="translate(278.5786959936553,156.16395805167136)" d="M4.472,0A4.472,4.472,0,1,1,-4.472,0A4.472,4.472,0,1,1,4.472,0" fill="#e45756" stroke-width="2" opacity="0.7"/><path aria-label="Obesity levels(Country): 25.3; Life expectancy(years) (Country): 80.5; happiness_level: High; City: Dublin" role="graphics-symbol" aria-roledescription="circle" transform="translate(198.18310021670692,150.59117465428858)" d="M4.472,0A4.472,4.472,0,1,1,-4.472,0A4.472,4.472,0,1,1,4.472,0" fill="#e45756" stroke-width="2" opacity="0.7"/><path aria-label="Obesity levels(Country): 4.3; Life expectancy(years) (Country): 83.2; happiness_level: Medium; City: Tokyo" role="graphics-symbol" aria-roledescription="circle" transform="translate(43.292502848274324,141.74028337609238)" d="M4.472,0A4.472,4.472,0,1,1,-4.472,0A4.472,4.472,0,1,1,4.472,0" fill="#f58518" stroke-width="2" opacity="0.7"/><path aria-label="Obesity levels(Country): 36.2; Life expectancy(years) (Country): 78.8; happiness_level: High; City: Chicago" role="graphics-symbol" aria-roledescription="circle" transform="translate(278.5786959936553,156.16395805167136)" d="M4.472,0A4.472,4.472,0,1,1,-4.472,0A4.472,4.472,0,1,1,4.472,0" fill="#e45756" stroke-width="2" opacity="0.7"/><path aria-label="Obesity levels(Country): 6.2; Life expectancy(years) (Country): 75.4; happiness_level: Medium; City: Hong Kong" role="graphics-symbol" aria-roledescription="circle" transform="translate(57.30641403875157,167.30952484643694)" d="M4.472,0A4.472,4.472,0,1,1,-4.472,0A4.472,4.472,0,1,1,4.472,0" fill="#f58518" stroke-width="2" opacity="0.7"/><path aria-label="Obesity levels(Country): 6.2; Life expectancy(years) (Country): 75.4; happiness_level: Low; City: Shanghai" role="graphics-symbol" aria-roledescription="circle" transform="translate(57.30641403875157,167.30952484643694)" d="M4.472,0A4.472,4.472,0,1,1,-4.472,0A4.472,4.472,0,1,1,4.472,0" fill="#4c78a8" stroke-width="2" opacity="0.7"/><path aria-label="Obesity levels(Country): 22.1; Life expectancy(years) (Country): 80.4; happiness_level: High; City: Brussels" role="graphics-symbol" aria-roledescription="circle" transform="translate(174.58072347485052,150.91898544236992)" d="M4.472,0A4.472,4.472,0,1,1,-4.472,0A4.472,4.472,0,1,1,4.472,0" fill="#e45756" stroke-width="2" opacity="0.7"/><path aria-label="Obesity levels(Country): 36.2; Life expectancy(years) (Country): 78.8; happiness_level: High; City: San Francisco" role="graphics-symbol" aria-roledescription="circle" transform="translate(278.5786959936553,156.16395805167136)" d="M4.472,0A4.472,4.472,0,1,1,-4.472,0A4.472,4.472,0,1,1,4.472,0" fill="#e45756" stroke-width="2" opacity="0.7"/><path aria-label="Obesity levels(Country): 21.6; Life expectancy(years) (Country): 81.8; happiness_level: High; City: Paris" role="graphics-symbol" aria-roledescription="circle" transform="translate(170.89285210893544,146.32963440923118)" d="M4.472,0A4.472,4.472,0,1,1,-4.472,0A4.472,4.472,0,1,1,4.472,0" fill="#e45756" stroke-width="2" opacity="0.7"/><path aria-label="Obesity levels(Country): 22.1; Life expectancy(years) (Country): 73.9; happiness_level: Medium; City: Sao Paulo" role="graphics-symbol" aria-roledescription="circle" transform="translate(174.58072347485052,172.22668666765702)" d="M4.472,0A4.472,4.472,0,1,1,-4.472,0A4.472,4.472,0,1,1,4.472,0" fill="#f58518" stroke-width="2" opacity="0.7"/><path aria-label="Obesity levels(Country): 19.5; Life expectancy(years) (Country): 82.6; happiness_level: High; City: Zurich" role="graphics-symbol" aria-roledescription="circle" transform="translate(155.4037923720922,143.70714810458043)" d="M4.472,0A4.472,4.472,0,1,1,-4.472,0A4.472,4.472,0,1,1,4.472,0" fill="#e45756" stroke-width="2" opacity="0.7"/><path aria-label="Obesity levels(Country): 27.8; Life expectancy(years) (Country): 80.4; happiness_level: High; City: London" role="graphics-symbol" aria-roledescription="circle" transform="translate(216.62245704628222,150.91898544236992)" d="M4.472,0A4.472,4.472,0,1,1,-4.472,0A4.472,4.472,0,1,1,4.472,0" fill="#e45756" stroke-width="2" opacity="0.7"/><path aria-label="Obesity levels(Country): 28.3; Life expectancy(years) (Country): 56.3; happiness_level: Low; City: Johannesburg" role="graphics-symbol" aria-roledescription="circle" transform="translate(220.3103284121973,229.92138536997294)" d="M4.472,0A4.472,4.472,0,1,1,-4.472,0A4.472,4.472,0,1,1,4.472,0" fill="#4c78a8" stroke-width="2" opacity="0.7"/><path aria-label="Obesity levels(Country): 19.9; Life expectancy(years) (Country): 82.7; happiness_level: Medium; City: Milan" role="graphics-symbol" aria-roledescription="circle" transform="translate(158.35408946482423,143.3793373164991)" d="M4.472,0A4.472,4.472,0,1,1,-4.472,0A4.472,4.472,0,1,1,4.472,0" fill="#f58518" stroke-width="2" opacity="0.7"/><path aria-label="Obesity levels(Country): 36.2; Life expectancy(years) (Country): 78.8; happiness_level: High; City: Washington, D.C." role="graphics-symbol" aria-roledescription="circle" transform="translate(278.5786959936553,156.16395805167136)" d="M4.472,0A4.472,4.472,0,1,1,-4.472,0A4.472,4.472,0,1,1,4.472,0" fill="#e45756" stroke-width="2" opacity="0.7"/><path aria-label="Obesity levels(Country): 36.2; Life expectancy(years) (Country): 78.8; happiness_level: High; City: New York" role="graphics-symbol" aria-roledescription="circle" transform="translate(278.5786959936553,156.16395805167136)" d="M4.472,0A4.472,4.472,0,1,1,-4.472,0A4.472,4.472,0,1,1,4.472,0" fill="#e45756" stroke-width="2" opacity="0.7"/><path aria-label="Obesity levels(Country): 23.1; Life expectancy(years) (Country): 69.5; happiness_level: Medium; City: Moscow" role="graphics-symbol" aria-roledescription="circle" transform="translate(181.95646620668066,186.65036134323603)" d="M4.472,0A4.472,4.472,0,1,1,-4.472,0A4.472,4.472,0,1,1,4.472,0" fill="#f58518" stroke-width="2" opacity="0.7"/><path aria-label="Obesity levels(Country): 28.9; Life expectancy(years) (Country): 76.4; happiness_level: Medium; City: Mexico City" role="graphics-symbol" aria-roledescription="circle" transform="translate(224.73577405129535,164.0314169656235)" d="M4.472,0A4.472,4.472,0,1,1,-4.472,0A4.472,4.472,0,1,1,4.472,0" fill="#f58518" stroke-width="2" opacity="0.7"/></g><g class="mark-group role-legend" role="graphics-symbol" aria-roledescription="legend" aria-label="Symbol legend titled 'happiness_level' for fill color with 3 values: Low, Medium, High"><g transform="translate(318,0)"><path class="background" aria-hidden="true" d="M0,0h85v53h-85Z" pointer-events="none"/><g><g class="mark-group role-legend-entry"><g transform="translate(0,16)"><path class="background" aria-hidden="true" d="M0,0h0v0h0Z" pointer-events="none"/><g><g class="mark-group role-scope" role="graphics-object" aria-roledescription="group mark container"><g transform="translate(0,0)"><path class="background" aria-hidden="true" d="M0,0h51.56640625v11h-51.56640625Z" pointer-events="none" opacity="1"/><g><g class="mark-symbol role-legend-symbol" pointer-events="none"><path transform="translate(6,6)" d="M5,0A5,5,0,1,1,-5,0A5,5,0,1,1,5,0" fill="#4c78a8" stroke-width="1.5" opacity="0.7"/></g><g class="mark-text role-legend-label" pointer-events="none"><text text-anchor="start" transform="translate(16,9)" font-family="sans-serif" font-size="10px" fill="#000" opacity="1">Low</text></g></g><path class="foreground" aria-hidden="true" d="" pointer-events="none" display="none"/></g><g transform="translate(0,13)"><path class="background" aria-hidden="true" d="M0,0h51.56640625v11h-51.56640625Z" pointer-events="none" opacity="1"/><g><g class="mark-symbol role-legend-symbol" pointer-events="none"><path transform="translate(6,6)" d="M5,0A5,5,0,1,1,-5,0A5,5,0,1,1,5,0" fill="#f58518" stroke-width="1.5" opacity="0.7"/></g><g class="mark-text role-legend-label" pointer-events="none"><text text-anchor="start" transform="translate(16,9)" font-family="sans-serif" font-size="10px" fill="#000" opacity="1">Medium</text></g></g><path class="foreground" aria-hidden="true" d="" pointer-events="none" display="none"/></g><g transform="translate(0,26)"><path class="background" aria-hidden="true" d="M0,0h51.56640625v11h-51.56640625Z" pointer-events="none" opacity="1"/><g><g class="mark-symbol role-legend-symbol" pointer-events="none"><path transform="translate(6,6)" d="M5,0A5,5,0,1,1,-5,0A5,5,0,1,1,5,0" fill="#e45756" stroke-width="1.5" opacity="0.7"/></g><g class="mark-text role-legend-label" pointer-events="none"><text text-anchor="start" transform="translate(16,9)" font-family="sans-serif" font-size="10px" fill="#000" opacity="1">High</text></g></g><path class="foreground" aria-hidden="true" d="" pointer-events="none" display="none"/></g></g></g><path class="foreground" aria-hidden="true" d="" pointer-events="none" display="none"/></g></g><g class="mark-text role-legend-title" pointer-events="none"><text text-anchor="start" transform="translate(0,9)" font-family="sans-serif" font-size="11px" font-weight="bold" fill="#000" opacity="1">happiness_level</text></g></g><path class="foreground" aria-hidden="true" d="" pointer-events="none" display="none"/></g></g><g class="mark-group role-title"><g transform="translate(150,-17)"><path class="background" aria-hidden="true" d="M0,0h0v0h0Z" pointer-events="none"/><g><g class="mark-text role-title-text" role="graphics-symbol" aria-roledescription="title" aria-label="Title text 'Obesity vs. Life Expectancy by Happiness Level'" pointer-events="none"><text text-anchor="middle" transform="translate(0,10)" font-family="sans-serif" font-size="13px" font-weight="bold" fill="#000" opacity="1">Obesity vs. Life Expectancy by Happiness Level</text></g></g><path class="foreground" aria-hidden="true" d="" pointer-events="none" display="none"/></g></g></g><path class="foreground" aria-hidden="true" d="" display="none"/></g></g></g><defs><clipPath id="clip1"><rect x="0" y="0" width="300" height="300"/></clipPath></defs></svg>