<svg xmlns="http://www.w3.org/2000/svg" xmlns:xlink="http://www.w3.org/1999/xlink" version="1.1" class="marks" width="447" height="364" viewBox="0 0 447 364"><rect width="447" height="364" fill="white"/><g fill="none" stroke-miterlimit="10" transform="translate(39,27)"><g class="mark-group role-frame root" role="graphics-object" aria-roledescription="group mark container"><g transform="translate(0,0)"><path class="background" aria-hidden="true" d="M0.5,0.5h300v300h-300Z" stroke="#ddd"/><g><g class="mark-group role-axis" aria-hidden="true"><g transform="translate(0.5,300.5)"><path class="background" aria-hidden="true" d="M0,0h0v0h0Z" pointer-events="none"/><g><g class="mark-rule role-axis-grid" pointer-events="none"><line transform="translate(0,-300)" x2="0" y2="300" stroke="#ddd" stroke-width="1" opacity="1"/><line transform="translate(30,-300)" x2="0" y2="300" stroke="#ddd" stroke-width="1" opacity="1"/><line transform="translate(60,-300)" x2="0" y2="300" stroke="#ddd" stroke-width="1" opacity="1"/><line transform="translate(90,-300)" x2="0" y2="300" stroke="#ddd" stroke-width="1" opacity="1"/><line transform="translate(120,-300)" x2="0" y2="300" stroke="#ddd" stroke-width="1" opacity="1"/><line transform="translate(150,-300)" x2="0" y2="300" stroke="#ddd" stroke-width="1" opacity="1"/><line transform="translate(180,-300)" x2="0" y2="300" stroke="#ddd" stroke-width="1" opacity="1"/><line transform="translate(210,-300)" x2="0" y2="300" stroke="#ddd" stroke-width="1" opacity="1"/><line transform="translate(240,-300)" x2="0" y2="300" stroke="#ddd" stroke-width="1" opacity="1"/><line transform="translate(270,-300)" x2="0" y2="300" stroke="#ddd" stroke-width="1" opacity="1"/><line transform="translate(300,-300)" x2="0" y2="300" stroke="#ddd" stroke-width="1" opacity="1"/></g></g><path class="foreground" aria-hidden="true" d="" pointer-events="none" display="none"/></g></g><g class="mark-group role-axis" aria-hidden="true"><g transform="translate(0.5,0.5)"><path class="background" aria-hidden="true" d="M0,0h0v0h0Z" pointer-events="none"/><g><g class="mark-rule role-axis-grid" pointer-events="none"><line transform="translate(0,300)" x2="300" y2="0" stroke="#ddd" stroke-width="1" opacity="1"/><line transform="translate(0,267)" x2="300" y2="0" stroke="#ddd" stroke-width="1" opacity="1"/><line transform="translate(0,233)" x2="300" y2="0" stroke="#ddd" stroke-width="1" opacity="1"/><line transform="translate(0,200)" x2="300" y2="0" stroke="#ddd" stroke-width="1" opacity="1"/><line transform="translate(0,167)" x2="300" y2="0" stroke="#ddd" stroke-width="1" opacity="1"/><line transform="translate(0,133)" x2="300" y2="0" stroke="#ddd" stroke-width="1" opacity="1"/><line transform="translate(0,100)" x2="300" y2="0" stroke="#ddd" stroke-width="1" opacity="1"/><line transform="translate(0,67)" x2="300" y2="0" stroke="#ddd" stroke-width="1" opacity="1"/><line transform="translate(0,33)" x2="300" y2="0" stroke="#ddd" stroke-width="1" opacity="1"/><line transform="translate(0,0)" x2="300" y2="0" stroke="#ddd" stroke-width="1" opacity="1"/></g></g><path class="foreground" aria-hidden="true" d="" pointer-events="none" display="none"/></g></g><g class="mark-group role-axis" role="graphics-symbol" aria-roledescription="axis" aria-label="X-axis titled 'Pollution(Index score) (City)' for a linear scale with values from 0 to 100"><g transform="translate(0.5,300.5)"><path class="background" aria-hidden="true" d="M0,0h0v0h0Z" pointer-events="none"/><g><g class="mark-rule role-axis-tick" pointer-events="none"><line transform="translate(0,0)" x2="0" y2="5" stroke="#888" stroke-width="1" opacity="1"/><line transform="translate(30,0)" x2="0" y2="5" stroke="#888" stroke-width="1" opacity="1"/><line transform="translate(60,0)" x2="0" y2="5" stroke="#888" stroke-width="1" opacity="1"/><line transform="translate(90,0)" x2="0" y2="5" stroke="#888" stroke-width="1" opacity="1"/><line transform="translate(120,0)" x2="0" y2="5" stroke="#888" stroke-width="1" opacity="1"/><line transform="translate(150,0)" x2="0" y2="5" stroke="#888" stroke-width="1" opacity="1"/><line transform="translate(180,0)" x2="0" y2="5" stroke="#888" stroke-width="1" opacity="1"/><line transform="translate(210,0)" x2="0" y2="5" stroke="#888" stroke-width="1" opacity="1"/><line transform="translate(240,0)" x2="0" y2="5" stroke="#888" stroke-width="1" opacity="1"/><line transform="translate(270,0)" x2="0" y2="5" stroke="#888" stroke-width="1" opacity="1"/><line transform="translate(300,0)" x2="0" y2="5" stroke="#888" stroke-width="1" opacity="1"/></g><g class="mark-text role-axis-label" pointer-events="none"><text text-anchor="start" transform="translate(0,15)" font-family="sans-serif" font-size="10px" fill="#000" opacity="1">0</text><text text-anchor="middle" transform="translate(30,15)" font-family="sans-serif" font-size="10px" fill="#000" opacity="1">10</text><text text-anchor="middle" transform="translate(60,15)" font-family="sans-serif" font-size="10px" fill="#000" opacity="1">20</text><text text-anchor="middle" transform="translate(90,15)" font-family="sans-serif" font-size="10px" fill="#000" opacity="1">30</text><text text-anchor="middle" transform="translate(120,15)" font-family="sans-serif" font-size="10px" fill="#000" opacity="1">40</text><text text-anchor="middle" transform="translate(150,15)" font-family="sans-serif" font-size="10px" fill="#000" opacity="1">50</text><text text-anchor="middle" transform="translate(180,15)" font-family="sans-serif" font-size="10px" fill="#000" opacity="1">60</text><text text-anchor="middle" transform="translate(210,15)" font-family="sans-serif" font-size="10px" fill="#000" opacity="1">70</text><text text-anchor="middle" transform="translate(240,15)" font-family="sans-serif" font-size="10px" fill="#000" opacity="1">80</text><text text-anchor="middle" transform="translate(270,15)" font-family="sans-serif" font-size="10px" fill="#000" opacity="1">90</text><text text-anchor="end" transform="translate(300,15)" font-family="sans-serif" font-size="10px" fill="#000" opacity="1">100</text></g><g class="mark-rule role-axis-domain" pointer-events="none"><line transform="translate(0,0)" x2="300" y2="0" stroke="#888" stroke-width="1" opacity="1"/></g><g class="mark-text role-axis-title" pointer-events="none"><text text-anchor="middle" transform="translate(150,30)" font-family="sans-serif" font-size="11px" font-weight="bold" fill="#000" opacity="1">Pollution(Index score) (City)</text></g></g><path class="foreground" aria-hidden="true" d="" pointer-events="none" display="none"/></g></g><g class="mark-group role-axis" role="graphics-symbol" aria-roledescription="axis" aria-label="Y-axis titled 'Life expectancy(years) (Country)' for a linear scale with values from 0 to 90"><g transform="translate(0.5,0.5)"><path class="background" aria-hidden="true" d="M0,0h0v0h0Z" pointer-events="none"/><g><g class="mark-rule role-axis-tick" pointer-events="none"><line transform="translate(0,300)" x2="-5" y2="0" stroke="#888" stroke-width="1" opacity="1"/><line transform="translate(0,267)" x2="-5" y2="0" stroke="#888" stroke-width="1" opacity="1"/><line transform="translate(0,233)" x2="-5" y2="0" stroke="#888" stroke-width="1" opacity="1"/><line transform="translate(0,200)" x2="-5" y2="0" stroke="#888" stroke-width="1" opacity="1"/><line transform="translate(0,167)" x2="-5" y2="0" stroke="#888" stroke-width="1" opacity="1"/><line transform="translate(0,133)" x2="-5" y2="0" stroke="#888" stroke-width="1" opacity="1"/><line transform="translate(0,100)" x2="-5" y2="0" stroke="#888" stroke-width="1" opacity="1"/><line transform="translate(0,67)" x2="-5" y2="0" stroke="#888" stroke-width="1" opacity="1"/><line transform="translate(0,33)" x2="-5" y2="0" stroke="#888" stroke-width="1" opacity="1"/><line transform="translate(0,0)" x2="-5" y2="0" stroke="#888" stroke-width="1" opacity="1"/></g><g class="mark-text role-axis-label" pointer-events="none"><text text-anchor="end" transform="translate(-7,303)" font-family="sans-serif" font-size="10px" fill="#000" opacity="1">0</text><text text-anchor="end" transform="translate(-7,269.66666666666663)" font-family="sans-serif" font-size="10px" fill="#000" opacity="1">10</text><text text-anchor="end" transform="translate(-7,236.33333333333334)" font-family="sans-serif" font-size="10px" fill="#000" opacity="1">20</text><text text-anchor="end" transform="translate(-7,203.00000000000003)" font-family="sans-serif" font-size="10px" fill="#000" opacity="1">30</text><text text-anchor="end" transform="translate(-7,169.66666666666669)" font-family="sans-serif" font-size="10px" fill="#000" opacity="1">40</text><text text-anchor="end" transform="translate(-7,136.33333333333331)" font-family="sans-serif" font-size="10px" fill="#000" opacity="1">50</text><text text-anchor="end" transform="translate(-7,103.00000000000001)" font-family="sans-serif" font-size="10px" fill="#000" opacity="1">60</text><text text-anchor="end" transform="translate(-7,69.66666666666666)" font-family="sans-serif" font-size="10px" fill="#000" opacity="1">70</text><text text-anchor="end" transform="translate(-7,36.33333333333335)" font-family="sans-serif" font-size="10px" fill="#000" opacity="1">80</text><text text-anchor="end" transform="translate(-7,3)" font-family="sans-serif" font-size="10px" fill="#000" opacity="1">90</text></g><g class="mark-rule role-axis-domain" pointer-events="none"><line transform="translate(0,300)" x2="0" y2="-300" stroke="#888" stroke-width="1" opacity="1"/></g><g class="mark-text role-axis-title" pointer-events="none"><text text-anchor="middle" transform="translate(-22.123046875,150) rotate(-90) translate(0,-2)" font-family="sans-serif" font-size="11px" font-weight="bold" fill="#000" opacity="1">Life expectancy(years) (Country)</text></g></g><path class="foreground" aria-hidden="true" d="" pointer-events="none" display="none"/></g></g><g class="mark-symbol role-mark marks" clip-path="url(#clip1)" role="graphics-object" aria-roledescription="symbol mark container"><path aria-label="Pollution(Index score) (City): 30.93; Life expectancy(years) (Country): 81.2; happiness_level: High; City: Amsterdam" role="graphics-symbol" aria-roledescription="circle" transform="translate(92.79,29.33333333333332)" d="M4.472,0A4.472,4.472,0,1,1,-4.472,0A4.472,4.472,0,1,1,4.472,0" fill="#e45756" stroke-width="2" opacity="0.7"/><path aria-label="Pollution(Index score) (City): 26.86; Life expectancy(years) (Country): 82.1; happiness_level: High; City: Sydney" role="graphics-symbol" aria-roledescription="circle" transform="translate(80.58,26.333333333333353)" d="M4.472,0A4.472,4.472,0,1,1,-4.472,0A4.472,4.472,0,1,1,4.472,0" fill="#e45756" stroke-width="2" opacity="0.7"/><path aria-label="Pollution(Index score) (City): 17.33; Life expectancy(years) (Country): 81; happiness_level: High; City: Vienna" role="graphics-symbol" aria-roledescription="circle" transform="translate(51.989999999999995,29.999999999999993)" d="M4.472,0A4.472,4.472,0,1,1,-4.472,0A4.472,4.472,0,1,1,4.472,0" fill="#e45756" stroke-width="2" opacity="0.7"/><path aria-label="Pollution(Index score) (City): 19.63; Life expectancy(years) (Country): 81.8; happiness_level: High; City: Stockholm" role="graphics-symbol" aria-roledescription="circle" transform="translate(58.89,27.333333333333343)" d="M4.472,0A4.472,4.472,0,1,1,-4.472,0A4.472,4.472,0,1,1,4.472,0" fill="#e45756" stroke-width="2" opacity="0.7"/><path aria-label="Pollution(Index score) (City): 21.24; Life expectancy(years) (Country): 79.8; happiness_level: High; City: Copenhagen" role="graphics-symbol" aria-roledescription="circle" transform="translate(63.71999999999999,34.00000000000002)" d="M4.472,0A4.472,4.472,0,1,1,-4.472,0A4.472,4.472,0,1,1,4.472,0" fill="#e45756" stroke-width="2" opacity="0.7"/><path aria-label="Pollution(Index score) (City): 13.08; Life expectancy(years) (Country): 80.4; happiness_level: High; City: Helsinki" role="graphics-symbol" aria-roledescription="circle" transform="translate(39.24,31.99999999999997)" d="M4.472,0A4.472,4.472,0,1,1,-4.472,0A4.472,4.472,0,1,1,4.472,0" fill="#e45756" stroke-width="2" opacity="0.7"/><path aria-label="Pollution(Index score) (City): 52.64; Life expectancy(years) (Country): 83.2; happiness_level: Medium; City: Fukuoka" role="graphics-symbol" aria-roledescription="circle" transform="translate(157.92,22.666666666666647)" d="M4.472,0A4.472,4.472,0,1,1,-4.472,0A4.472,4.472,0,1,1,4.472,0" fill="#f58518" stroke-width="2" opacity="0.7"/><path aria-label="Pollution(Index score) (City): 39.41; Life expectancy(years) (Country): 80.6; happiness_level: High; City: Berlin" role="graphics-symbol" aria-roledescription="circle" transform="translate(118.22999999999999,31.333333333333368)" d="M4.472,0A4.472,4.472,0,1,1,-4.472,0A4.472,4.472,0,1,1,4.472,0" fill="#e45756" stroke-width="2" opacity="0.7"/><path aria-label="Pollution(Index score) (City): 65.19; Life expectancy(years) (Country): 82.2; happiness_level: Medium; City: Barcelona" role="graphics-symbol" aria-roledescription="circle" transform="translate(195.56999999999996,26)" d="M4.472,0A4.472,4.472,0,1,1,-4.472,0A4.472,4.472,0,1,1,4.472,0" fill="#f58518" stroke-width="2" opacity="0.7"/><path aria-label="Pollution(Index score) (City): 24.26; Life expectancy(years) (Country): 81.7; happiness_level: High; City: Vancouver" role="graphics-symbol" aria-roledescription="circle" transform="translate(72.78,27.66666666666666)" d="M4.472,0A4.472,4.472,0,1,1,-4.472,0A4.472,4.472,0,1,1,4.472,0" fill="#e45756" stroke-width="2" opacity="0.7"/><path aria-label="Pollution(Index score) (City): 25.9; Life expectancy(years) (Country): 82.1; happiness_level: High; City: Melbourne" role="graphics-symbol" aria-roledescription="circle" transform="translate(77.7,26.333333333333353)" d="M4.472,0A4.472,4.472,0,1,1,-4.472,0A4.472,4.472,0,1,1,4.472,0" fill="#e45756" stroke-width="2" opacity="0.7"/><path aria-label="Pollution(Index score) (City): 85.43; Life expectancy(years) (Country): 75.4; happiness_level: Low; City: Beijing" role="graphics-symbol" aria-roledescription="circle" transform="translate(256.29,48.66666666666665)" d="M4.472,0A4.472,4.472,0,1,1,-4.472,0A4.472,4.472,0,1,1,4.472,0" fill="#4c78a8" stroke-width="2" opacity="0.7"/><path aria-label="Pollution(Index score) (City): 76.64; Life expectancy(years) (Country): 74.1; happiness_level: Medium; City: Bangkok" role="graphics-symbol" aria-roledescription="circle" transform="translate(229.92,53.00000000000003)" d="M4.472,0A4.472,4.472,0,1,1,-4.472,0A4.472,4.472,0,1,1,4.472,0" fill="#f58518" stroke-width="2" opacity="0.7"/><path aria-label="Pollution(Index score) (City): 52.64; Life expectancy(years) (Country): 75.9; happiness_level: Medium; City: Buenos Aires" role="graphics-symbol" aria-roledescription="circle" transform="translate(157.92,46.999999999999986)" d="M4.472,0A4.472,4.472,0,1,1,-4.472,0A4.472,4.472,0,1,1,4.472,0" fill="#f58518" stroke-width="2" opacity="0.7"/><path aria-label="Pollution(Index score) (City): 37.83; Life expectancy(years) (Country): 81.7; happiness_level: High; City: Toronto" role="graphics-symbol" aria-roledescription="circle" transform="translate(113.49,27.66666666666666)" d="M4.472,0A4.472,4.472,0,1,1,-4.472,0A4.472,4.472,0,1,1,4.472,0" fill="#e45756" stroke-width="2" opacity="0.7"/><path aria-label="Pollution(Index score) (City): 52.68; Life expectancy(years) (Country): 82.2; happiness_level: Medium; City: Madrid" role="graphics-symbol" aria-roledescription="circle" transform="translate(158.04000000000002,26)" d="M4.472,0A4.472,4.472,0,1,1,-4.472,0A4.472,4.472,0,1,1,4.472,0" fill="#f58518" stroke-width="2" opacity="0.7"/><path aria-label="Pollution(Index score) (City): 84.39; Life expectancy(years) (Country): 68.5; happiness_level: Low; City: Jakarta" role="graphics-symbol" aria-roledescription="circle" transform="translate(253.17,71.66666666666669)" d="M4.472,0A4.472,4.472,0,1,1,-4.472,0A4.472,4.472,0,1,1,4.472,0" fill="#4c78a8" stroke-width="2" opacity="0.7"/><path aria-label="Pollution(Index score) (City): 57.82; Life expectancy(years) (Country): 81.3; happiness_level: Medium; City: Seoul" role="graphics-symbol" aria-roledescription="circle" transform="translate(173.46,29.000000000000004)" d="M4.472,0A4.472,4.472,0,1,1,-4.472,0A4.472,4.472,0,1,1,4.472,0" fill="#f58518" stroke-width="2" opacity="0.7"/><path aria-label="Pollution(Index score) (City): 37.78; Life expectancy(years) (Country): 80.6; happiness_level: High; City: Frankfurt" role="graphics-symbol" aria-roledescription="circle" transform="translate(113.34,31.333333333333368)" d="M4.472,0A4.472,4.472,0,1,1,-4.472,0A4.472,4.472,0,1,1,4.472,0" fill="#e45756" stroke-width="2" opacity="0.7"/><path aria-label="Pollution(Index score) (City): 27.25; Life expectancy(years) (Country): 82.6; happiness_level: High; City: Geneva" role="graphics-symbol" aria-roledescription="circle" transform="translate(81.75,24.666666666666693)" d="M4.472,0A4.472,4.472,0,1,1,-4.472,0A4.472,4.472,0,1,1,4.472,0" fill="#e45756" stroke-width="2" opacity="0.7"/><path aria-label="Pollution(Index score) (City): 47.28; Life expectancy(years) (Country): 81.9; happiness_level: High; City: Tel Aviv" role="graphics-symbol" aria-roledescription="circle" transform="translate(141.84,26.99999999999999)" d="M4.472,0A4.472,4.472,0,1,1,-4.472,0A4.472,4.472,0,1,1,4.472,0" fill="#e45756" stroke-width="2" opacity="0.7"/><path aria-label="Pollution(Index score) (City): 69.49; Life expectancy(years) (Country): 74.7; happiness_level: Low; City: Istanbul" role="graphics-symbol" aria-roledescription="circle" transform="translate(208.47,50.99999999999998)" d="M4.472,0A4.472,4.472,0,1,1,-4.472,0A4.472,4.472,0,1,1,4.472,0" fill="#4c78a8" stroke-width="2" opacity="0.7"/><path aria-label="Pollution(Index score) (City): 91.74; Life expectancy(years) (Country): 70.7; happiness_level: Low; City: Cairo" role="graphics-symbol" aria-roledescription="circle" transform="translate(275.21999999999997,64.33333333333333)" d="M4.472,0A4.472,4.472,0,1,1,-4.472,0A4.472,4.472,0,1,1,4.472,0" fill="#4c78a8" stroke-width="2" opacity="0.7"/><path aria-label="Pollution(Index score) (City): 49.32; Life expectancy(years) (Country): 75.4; happiness_level: Low; City: Taipei" role="graphics-symbol" aria-roledescription="circle" transform="translate(147.96,48.66666666666665)" d="M4.472,0A4.472,4.472,0,1,1,-4.472,0A4.472,4.472,0,1,1,4.472,0" fill="#4c78a8" stroke-width="2" opacity="0.7"/><path aria-label="Pollution(Index score) (City): 66.07; Life expectancy(years) (Country): 78.8; happiness_level: High; City: Los Angeles" role="graphics-symbol" aria-roledescription="circle" transform="translate(198.20999999999998,37.33333333333334)" d="M4.472,0A4.472,4.472,0,1,1,-4.472,0A4.472,4.472,0,1,1,4.472,0" fill="#e45756" stroke-width="2" opacity="0.7"/><path aria-label="Pollution(Index score) (City): 82.84; Life expectancy(years) (Country): 67.3; happiness_level: Low; City: Mumbai" role="graphics-symbol" aria-roledescription="circle" transform="translate(248.52,75.66666666666667)" d="M4.472,0A4.472,4.472,0,1,1,-4.472,0A4.472,4.472,0,1,1,4.472,0" fill="#4c78a8" stroke-width="2" opacity="0.7"/><path aria-label="Pollution(Index score) (City): 27.03; Life expectancy(years) (Country): 78.8; happiness_level: High; City: Boston" role="graphics-symbol" aria-roledescription="circle" transform="translate(81.08999999999999,37.33333333333334)" d="M4.472,0A4.472,4.472,0,1,1,-4.472,0A4.472,4.472,0,1,1,4.472,0" fill="#e45756" stroke-width="2" opacity="0.7"/><path aria-label="Pollution(Index score) (City): 40.07; Life expectancy(years) (Country): 80.5; happiness_level: High; City: Dublin" role="graphics-symbol" aria-roledescription="circle" transform="translate(120.21,31.666666666666654)" d="M4.472,0A4.472,4.472,0,1,1,-4.472,0A4.472,4.472,0,1,1,4.472,0" fill="#e45756" stroke-width="2" opacity="0.7"/><path aria-label="Pollution(Index score) (City): 42.84; Life expectancy(years) (Country): 83.2; happiness_level: Medium; City: Tokyo" role="graphics-symbol" aria-roledescription="circle" transform="translate(128.52,22.666666666666647)" d="M4.472,0A4.472,4.472,0,1,1,-4.472,0A4.472,4.472,0,1,1,4.472,0" fill="#f58518" stroke-width="2" opacity="0.7"/><path aria-label="Pollution(Index score) (City): 43.33; Life expectancy(years) (Country): 78.8; happiness_level: High; City: Chicago" role="graphics-symbol" aria-roledescription="circle" transform="translate(129.98999999999998,37.33333333333334)" d="M4.472,0A4.472,4.472,0,1,1,-4.472,0A4.472,4.472,0,1,1,4.472,0" fill="#e45756" stroke-width="2" opacity="0.7"/><path aria-label="Pollution(Index score) (City): 67.46; Life expectancy(years) (Country): 75.4; happiness_level: Medium; City: Hong Kong" role="graphics-symbol" aria-roledescription="circle" transform="translate(202.38,48.66666666666665)" d="M4.472,0A4.472,4.472,0,1,1,-4.472,0A4.472,4.472,0,1,1,4.472,0" fill="#f58518" stroke-width="2" opacity="0.7"/><path aria-label="Pollution(Index score) (City): 77.4; Life expectancy(years) (Country): 75.4; happiness_level: Low; City: Shanghai" role="graphics-symbol" aria-roledescription="circle" transform="translate(232.20000000000002,48.66666666666665)" d="M4.472,0A4.472,4.472,0,1,1,-4.472,0A4.472,4.472,0,1,1,4.472,0" fill="#4c78a8" stroke-width="2" opacity="0.7"/><path aria-label="Pollution(Index score) (City): 62.67; Life expectancy(years) (Country): 80.4; happiness_level: High; City: Brussels" role="graphics-symbol" aria-roledescription="circle" transform="translate(188.01000000000002,31.99999999999997)" d="M4.472,0A4.472,4.472,0,1,1,-4.472,0A4.472,4.472,0,1,1,4.472,0" fill="#e45756" stroke-width="2" opacity="0.7"/><path aria-label="Pollution(Index score) (City): 47.36; Life expectancy(years) (Country): 78.8; happiness_level: High; City: San Francisco" role="graphics-symbol" aria-roledescription="circle" transform="translate(142.08,37.33333333333334)" d="M4.472,0A4.472,4.472,0,1,1,-4.472,0A4.472,4.472,0,1,1,4.472,0" fill="#e45756" stroke-width="2" opacity="0.7"/><path aria-label="Pollution(Index score) (City): 65.1; Life expectancy(years) (Country): 81.8; happiness_level: High; City: Paris" role="graphics-symbol" aria-roledescription="circle" transform="translate(195.29999999999998,27.333333333333343)" d="M4.472,0A4.472,4.472,0,1,1,-4.472,0A4.472,4.472,0,1,1,4.472,0" fill="#e45756" stroke-width="2" opacity="0.7"/><path aria-label="Pollution(Index score) (City): 79.78; Life expectancy(years) (Country): 73.9; happiness_level: Medium; City: Sao Paulo" role="graphics-symbol" aria-roledescription="circle" transform="translate(239.34000000000003,53.666666666666664)" d="M4.472,0A4.472,4.472,0,1,1,-4.472,0A4.472,4.472,0,1,1,4.472,0" fill="#f58518" stroke-width="2" opacity="0.7"/><path aria-label="Pollution(Index score) (City): 17.31; Life expectancy(years) (Country): 82.6; happiness_level: High; City: Zurich" role="graphics-symbol" aria-roledescription="circle" transform="translate(51.92999999999999,24.666666666666693)" d="M4.472,0A4.472,4.472,0,1,1,-4.472,0A4.472,4.472,0,1,1,4.472,0" fill="#e45756" stroke-width="2" opacity="0.7"/><path aria-label="Pollution(Index score) (City): 58.91; Life expectancy(years) (Country): 80.4; happiness_level: High; City: London" role="graphics-symbol" aria-roledescription="circle" transform="translate(176.73,31.99999999999997)" d="M4.472,0A4.472,4.472,0,1,1,-4.472,0A4.472,4.472,0,1,1,4.472,0" fill="#e45756" stroke-width="2" opacity="0.7"/><path aria-label="Pollution(Index score) (City): 61.83; Life expectancy(years) (Country): 56.3; happiness_level: Low; City: Johannesburg" role="graphics-symbol" aria-roledescription="circle" transform="translate(185.48999999999998,112.33333333333334)" d="M4.472,0A4.472,4.472,0,1,1,-4.472,0A4.472,4.472,0,1,1,4.472,0" fill="#4c78a8" stroke-width="2" opacity="0.7"/><path aria-label="Pollution(Index score) (City): 67.19; Life expectancy(years) (Country): 82.7; happiness_level: Medium; City: Milan" role="graphics-symbol" aria-roledescription="circle" transform="translate(201.57,24.33333333333334)" d="M4.472,0A4.472,4.472,0,1,1,-4.472,0A4.472,4.472,0,1,1,4.472,0" fill="#f58518" stroke-width="2" opacity="0.7"/><path aria-label="Pollution(Index score) (City): 39.18; Life expectancy(years) (Country): 78.8; happiness_level: High; City: Washington, D.C." role="graphics-symbol" aria-roledescription="circle" transform="translate(117.53999999999999,37.33333333333334)" d="M4.472,0A4.472,4.472,0,1,1,-4.472,0A4.472,4.472,0,1,1,4.472,0" fill="#e45756" stroke-width="2" opacity="0.7"/><path aria-label="Pollution(Index score) (City): 57.36; Life expectancy(years) (Country): 78.8; happiness_level: High; City: New York" role="graphics-symbol" aria-roledescription="circle" transform="translate(172.08,37.33333333333334)" d="M4.472,0A4.472,4.472,0,1,1,-4.472,0A4.472,4.472,0,1,1,4.472,0" fill="#e45756" stroke-width="2" opacity="0.7"/><path aria-label="Pollution(Index score) (City): 57.63; Life expectancy(years) (Country): 69.5; happiness_level: Medium; City: Moscow" role="graphics-symbol" aria-roledescription="circle" transform="translate(172.89000000000001,68.33333333333333)" d="M4.472,0A4.472,4.472,0,1,1,-4.472,0A4.472,4.472,0,1,1,4.472,0" fill="#f58518" stroke-width="2" opacity="0.7"/><path aria-label="Pollution(Index score) (City): 82.78; Life expectancy(years) (Country): 76.4; happiness_level: Medium; City: Mexico City" role="graphics-symbol" aria-roledescription="circle" transform="translate(248.34,45.33333333333333)" d="M4.472,0A4.472,4.472,0,1,1,-4.472,0A4.472,4.472,0,1,1,4.472,0" fill="#f58518" stroke-width="2" opacity="0.7"/></g><g class="mark-group role-legend" role="graphics-symbol" aria-roledescription="legend" aria-label="Symbol legend titled 'happiness_level' for fill color with 3 values: Low, Medium, High"><g transform="translate(318,0)"><path class="background" aria-hidden="true" d="M0,0h85v53h-85Z" pointer-events="none"/><g><g class="mark-group role-legend-entry"><g transform="translate(0,16)"><path class="background" aria-hidden="true" d="M0,0h0v0h0Z" pointer-events="none"/><g><g class="mark-group role-scope" role="graphics-object" aria-roledescription="group mark container"><g transform="translate(0,0)"><path class="background" aria-hidden="true" d="M0,0h51.56640625v11h-51.56640625Z" pointer-events="none" opacity="1"/><g><g class="mark-symbol role-legend-symbol" pointer-events="none"><path transform="translate(6,6)" d="M5,0A5,5,0,1,1,-5,0A5,5,0,1,1,5,0" fill="#4c78a8" stroke-width="1.5" opacity="0.7"/></g><g class="mark-text role-legend-label" pointer-events="none"><text text-anchor="start" transform="translate(16,9)" font-family="sans-serif" font-size="10px" fill="#000" opacity="1">Low</text></g></g><path class="foreground" aria-hidden="true" d="" pointer-events="none" display="none"/></g><g transform="translate(0,13)"><path class="background" aria-hidden="true" d="M0,0h51.56640625v11h-51.56640625Z" pointer-events="none" opacity="1"/><g><g class="mark-symbol role-legend-symbol" pointer-events="none"><path transform="translate(6,6)" d="M5,0A5,5,0,1,1,-5,0A5,5,0,1,1,5,0" fill="#f58518" stroke-width="1.5" opacity="0.7"/></g><g class="mark-text role-legend-label" pointer-events="none"><text text-anchor="start" transform="translate(16,9)" font-family="sans-serif" font-size="10px" fill="#000" opacity="1">Medium</text></g></g><path class="foreground" aria-hidden="true" d="" pointer-events="none" display="none"/></g><g transform="translate(0,26)"><path class="background" aria-hidden="true" d="M0,0h51.56640625v11h-51.56640625Z" pointer-events="none" opacity="1"/><g><g class="mark-symbol role-legend-symbol" pointer-events="none"><path transform="translate(6,6)" d="M5,0A5,5,0,1,1,-5,0A5,5,0,1,1,5,0" fill="#e45756" stroke-width="1.5" opacity="0.7"/></g><g class="mark-text role-legend-label" pointer-events="none"><text text-anchor="start" transform="translate(16,9)" font-family="sans-serif" font-size="10px" fill="#000" opacity="1">High</text></g></g><path class="foreground" aria-hidden="true" d="" pointer-events="none" display="none"/></g></g></g><path class="foreground" aria-hidden="true" d="" pointer-events="none" display="none"/></g></g><g class="mark-text role-legend-title" pointer-events="none"><text text-anchor="start" transform="translate(0,9)" font-family="sans-serif" font-size="11px" font-weight="bold" fill="#000" opacity="1">happiness_level</text></g></g><path class="foreground" aria-hidden="true" d="" pointer-events="none" display="none"/></g></g><g class="mark-group role-title"><g transform="translate(150,-22)"><path class="background" aria-hidden="true" d="M0,0h0v0h0Z" pointer-events="none"/><g><g class="mark-text role-title-text" role="graphics-symbol" aria-roledescription="title" aria-label="Title text 'Pollution vs. Life Expectancy by Happiness Level'" pointer-events="none"><text text-anchor="middle" transform="translate(0,10)" font-family="sans-serif" font-size="13px" font-weight="bold" fill="#000" opacity="1">Pollution vs. Life Expectancy by Happiness Level</text></g></g><path class="foreground" aria-hidden="true" d="" pointer-events="none" display="none"/></g></g></g><path class="foreground" aria-hidden="true" d="" display="none"/></g></g></g><defs><clipPath id="clip1"><rect x="0" y="0" width="300" height="300"/></clipPath></defs></svg>